<svg id="visual" viewBox="0 0 900 450" width="900" height="450" xmlns="http://www.w3.org/2000/svg" xmlns:xlink="http://www.w3.org/1999/xlink" version="1.1"><rect width="900" height="450" fill="#001220"></rect><g><g transform="translate(430 170)"><path d="M83.4 -26.7C95.7 10.8 84.8 56.3 55.3 78.2C25.8 100.1 -22.3 98.5 -51.5 76C-80.8 53.6 -91.2 10.3 -79.5 -26.4C-67.8 -63.2 -33.9 -93.3 0.8 -93.6C35.5 -93.8 71.1 -64.2 83.4 -26.7Z" fill="#f57660"></path></g><g transform="translate(642 3)"><path d="M40.6 -11.7C47.1 6.7 42.9 30 28 41.6C13 53.1 -12.7 53 -29.8 40.6C-46.9 28.3 -55.5 3.7 -49.1 -14.6C-42.7 -32.8 -21.3 -44.9 -2.1 -44.2C17.1 -43.5 34.2 -30.1 40.6 -11.7Z" fill="#f57660"></path></g><g transform="translate(126 266)"><path d="M67.9 -22.5C77.3 6.8 66.8 42.1 41.4 61.6C16 81.1 -24.1 84.8 -48.6 67C-73.1 49.2 -81.9 9.9 -71.2 -21.2C-60.5 -52.3 -30.2 -75.2 -0.5 -75C29.3 -74.9 58.5 -51.7 67.9 -22.5Z" fill="#f57660"></path></g><g transform="translate(892 138)"><path d="M75.2 -22.7C86.9 11.6 78.5 54.1 52.3 73.4C26.1 92.8 -17.9 89 -45.9 67.6C-73.9 46.3 -85.9 7.2 -75.6 -25.2C-65.3 -57.5 -32.6 -83.2 -0.4 -83.1C31.7 -83 63.5 -56.9 75.2 -22.7Z" fill="#f57660"></path></g></g></svg>